PathFileType	4	(X/Y/Z)
DataRate	CameraRate	NumFrames	NumMarkers	Units	OrigDataRate	OrigDataStartFrame	OrigNumFrames	
  100.0	  100.0	    4	     56	     mm	  100.0	      214	    855
Frame#	Time	LASI			RASI			LPSI			RPSI			RTH1			RTH2			RTH3			RLFC			RMFC			LTH1			LTH2			LTH3			LLFC			LMFC			RTB1			RTB2			RTB3			RLMAL			RMMAL			LTB1			LTB2			LTB3			LMMAL			LLMAL			RCAL			RTOE			RMT5			LCAL			LTOE			LMT5			LACR			RACR			CLAV			C7			LASH			LPSH			RASH			RPSH			RUA1			RUA2			RUA3			RLEL			RMEL			LUA1			LUA2			LUA3			LLEL			LMEL			RFAsuperior			RFAradius			RFAulna			LFAsuperior			LFAradius			LFAulna			RHJC			LHJC			
		X1	Y1	Z1	X2	Y2	Z2	X3	Y3	Z3	X4	Y4	Z4	X5	Y5	Z5	X6	Y6	Z6	X7	Y7	Z7	X8	Y8	Z8	X9	Y9	Z9	X10	Y10	Z10	X11	Y11	Z11	X12	Y12	Z12	X13	Y13	Z13	X14	Y14	Z14	X15	Y15	Z15	X16	Y16	Z16	X17	Y17	Z17	X18	Y18	Z18	X19	Y19	Z19	X20	Y20	Z20	X21	Y21	Z21	X22	Y22	Z22	X23	Y23	Z23	X24	Y24	Z24	X25	Y25	Z25	X26	Y26	Z26	X27	Y27	Z27	X28	Y28	Z28	X29	Y29	Z29	X30	Y30	Z30	X31	Y31	Z31	X32	Y32	Z32	X33	Y33	Z33	X34	Y34	Z34	X35	Y35	Z35	X36	Y36	Z36	X37	Y37	Z37	X38	Y38	Z38	X39	Y39	Z39	X40	Y40	Z40	X41	Y41	Z41	X42	Y42	Z42	X43	Y43	Z43	X44	Y44	Z44	X45	Y45	Z45	X46	Y46	Z46	X47	Y47	Z47	X48	Y48	Z48	X49	Y49	Z49	X50	Y50	Z50	X51	Y51	Z51	X52	Y52	Z52	X53	Y53	Z53	X54	Y54	Z54	X55	Y55	Z55	X56	Y56	Z56	

245	2.45000	896.59609	1085.14538	-489.74036	656.56878	1093.71354	-480.59816	816.80579	1111.97192	-654.64787	731.86620	1110.67389	-651.43871	595.92260	833.93819	-577.45392	616.53956	759.04100	-511.43073	614.92372	662.78431	-587.84681	612.24918	543.14332	-575.69480	724.49280	526.10343	-590.01977	942.68176	866.83044	-599.98417	951.19400	755.16815	-534.70834	939.71006	657.70810	-594.63795	939.19667	537.06823	-573.64193	830.15688	522.92971	-589.76774	649.09345	409.80609	-557.46295	609.57067	356.58495	-605.19887	659.86166	228.83037	-586.02513	652.07669	118.66379	-633.02590	728.19940	140.33748	-602.13107	914.58987	419.80684	-560.13522	926.94870	321.37807	-647.11954	886.92971	230.58749	-580.77709	808.95678	127.06857	-595.35564	889.83301	110.57159	-621.78282	720.57847	97.99822	-683.81187	675.59235	74.07997	-461.79017	609.94547	55.23423	-539.73074	830.78226	87.42038	-680.55553	853.41684	76.47588	-454.51648	919.72529	56.12299	-514.95343	912.53000	1602.86380	-610.72773	651.71482	1593.08471	-595.78900	763.37197	1527.46963	-517.68933	781.67211	1598.47696	-645.43177	908.12936	1571.95181	-542.26174	950.86364	1542.40986	-655.30713	655.63710	1566.54930	-533.51665	616.10259	1558.18785	-641.65463	513.89549	1594.68226	-542.23346	456.98699	1541.87407	-502.08635	407.82569	1589.13719	-468.24170	356.09986	1617.75186	-424.92071	396.29804	1558.66254	-376.03140	1040.14127	1553.09630	-576.68171	1101.67590	1525.31958	-499.58015	1149.97469	1585.59798	-480.72466	1214.12971	1603.17561	-428.99354	1169.97559	1553.42831	-377.63193	298.51106	1628.77074	-370.02878	223.30508	1700.59488	-194.55303	174.66289	1680.98737	-234.95963	1285.70536	1601.75735	-364.33083	1353.38394	1676.91656	-216.80431	1401.29779	1651.64873	-258.01893	670.15593	989.61576	-560.23332	876.46108	980.03151	-563.48637	
246	2.46000	896.57849	1085.12534	-489.21058	656.56546	1093.77038	-479.99451	816.84326	1111.92290	-654.05076	731.88578	1110.63867	-650.85084	596.09347	833.86708	-577.09054	616.58161	758.98415	-510.90382	614.80659	662.76284	-587.24633	612.23908	543.11534	-575.27857	724.52724	526.06259	-589.68079	942.75350	866.81707	-599.37422	951.11602	755.13297	-534.12074	939.69376	657.68817	-594.06648	939.18341	537.05297	-573.24298	830.12847	522.93032	-589.25235	649.13618	409.75153	-557.21047	609.56835	356.49192	-605.03898	659.87150	228.77992	-585.97844	652.10970	118.68688	-633.00362	728.19625	140.31613	-602.03245	914.52788	419.78078	-559.80874	926.95751	321.40239	-646.87620	886.90502	230.57819	-580.63217	808.93570	126.99820	-595.41360	889.82518	110.58432	-621.76454	720.59389	98.01992	-683.80962	675.59042	74.03317	-461.76217	609.95875	55.24314	-539.73159	830.80670	87.45112	-680.59048	853.41064	76.46176	-454.44574	919.73357	56.12666	-514.94201	912.03508	1603.09211	-610.49166	652.15180	1593.36376	-595.60169	763.43287	1527.59199	-517.18002	781.74613	1598.56162	-644.90348	907.77000	1572.41491	-541.94159	950.64267	1542.70196	-655.04287	656.02988	1567.03981	-533.27295	616.49648	1558.53160	-641.36296	514.59400	1596.27790	-542.54760	457.06869	1544.15347	-502.39135	408.17030	1592.00324	-468.94542	356.55686	1621.30239	-425.97216	396.05395	1562.20765	-376.63180	1039.99294	1554.40822	-576.91239	1101.85861	1527.62448	-499.73925	1149.76079	1588.38934	-481.42395	1213.96342	1606.82488	-430.04300	1170.27919	1557.17071	-378.16617	298.86581	1633.13488	-371.41492	223.57414	1706.69948	-196.60460	174.95533	1687.28141	-237.04009	1285.74139	1606.52299	-365.67691	1353.40813	1683.02144	-218.94275	1401.32929	1657.85522	-260.25821	670.12289	989.64818	-559.64064	876.42293	979.98569	-562.85309	
247	2.47000	896.57282	1085.10199	-488.66775	656.55191	1093.80710	-479.43623	816.87669	1111.86857	-653.46669	731.90913	1110.59354	-650.27126	596.24939	833.77949	-576.74401	616.62834	758.94813	-510.43208	614.48510	662.78106	-586.71293	612.25279	543.08447	-574.87591	724.54567	526.02789	-589.41368	942.80016	866.80044	-598.73914	951.03447	755.09887	-533.51197	939.69439	657.66172	-593.50949	939.16768	537.03656	-572.80920	830.06199	522.92578	-588.71439	649.18702	409.68714	-556.99763	609.57950	356.46452	-604.88523	659.89230	228.76654	-585.85625	652.10875	118.69556	-632.90447	728.20702	140.30256	-601.97906	914.47415	419.75720	-559.48176	926.97984	321.43629	-646.64971	886.88480	230.56805	-580.44732	808.87640	126.96459	-595.43938	889.82011	110.59889	-621.74328	720.61552	98.03619	-683.79999	675.59081	73.99981	-461.72927	609.99975	55.24477	-539.70434	830.81692	87.47195	-680.60051	853.40501	76.44702	-454.34682	919.72753	56.12396	-514.94525	911.58302	1603.34520	-610.21919	652.54954	1593.61699	-595.37881	763.50595	1527.68605	-516.72938	781.83225	1598.61790	-644.43366	907.44323	1572.83112	-541.64628	950.44999	1542.94910	-654.75394	656.38538	1567.50723	-533.03242	616.85847	1558.84885	-641.05078	515.22841	1597.71870	-542.85738	457.13040	1546.22372	-502.64120	408.48731	1594.59217	-469.57508	356.97007	1624.52028	-426.95215	395.85407	1565.42152	-377.19640	1039.86648	1555.59308	-577.10101	1102.04589	1529.73123	-499.88836	1149.56844	1590.94177	-482.06162	1213.92721	1610.19411	-430.88304	1170.58815	1560.58797	-378.65836	299.20186	1637.11254	-372.68781	223.84026	1712.22285	-198.48786	175.25638	1692.96794	-238.94077	1285.77498	1611.03447	-366.99715	1353.45847	1688.54912	-220.94881	1401.38673	1663.48459	-262.36593	670.10109	989.65938	-559.06631	876.39799	979.94004	-562.23691	
248	2.48000	896.56687	1085.09066	-488.09636	656.53195	1093.80139	-478.95559	816.90814	1111.81687	-652.89354	731.93813	1110.54538	-649.70432	596.33102	833.70468	-576.31786	616.66599	758.90508	-510.01822	614.07688	662.83292	-586.32877	612.30145	543.08131	-574.50333	724.56747	526.02387	-589.15935	942.82931	866.78198	-598.11406	950.95706	755.06405	-532.90607	939.73239	657.64877	-593.02199	939.14568	537.01740	-572.35047	829.99760	522.92328	-588.24863	649.22908	409.63880	-556.78507	609.60673	356.49111	-604.76720	659.93083	228.79614	-585.63349	652.08135	118.68932	-632.74556	728.23271	140.30151	-601.95401	914.43847	419.74714	-559.17336	927.01436	321.47503	-646.42997	886.87117	230.55670	-580.24706	808.76375	126.98584	-595.42764	889.81671	110.61095	-621.70970	720.63160	98.04640	-683.77877	675.60191	73.98384	-461.69665	610.03370	55.23266	-539.69058	830.81130	87.47942	-680.58164	853.39955	76.42929	-454.26361	919.70872	56.12308	-514.93082	911.16474	1603.61636	-609.87099	652.91321	1593.84215	-595.12243	763.58991	1527.73791	-516.32294	781.92925	1598.63186	-644.00797	907.16454	1573.20604	-541.33690	950.28291	1543.15965	-654.43899	656.72042	1567.95108	-532.81189	617.18300	1559.12836	-640.70879	515.78401	1599.00044	-543.12869	457.19008	1548.06180	-502.84240	408.79097	1596.91569	-470.16969	357.36343	1627.41703	-427.90142	395.69522	1568.32814	-377.71557	1039.75012	1556.66261	-577.24472	1102.23110	1531.62717	-500.02483	1149.40759	1593.23761	-482.63780	1214.05483	1613.28072	-431.47899	1170.92381	1563.65798	-379.08447	299.50964	1640.68835	-373.84694	224.08856	1717.16744	-200.21347	175.50047	1698.04557	-240.64178	1285.84952	1614.85322	-368.13162	1353.54097	1693.55371	-222.71750	1401.47653	1668.59087	-264.23604	670.10728	989.63264	-558.53013	876.40550	979.91295	-561.64635	
